<svg id="Layer_5" enable-background="new 0 0 64 64" height="512" viewBox="0 0 64 64" width="512" xmlns="http://www.w3.org/2000/svg"><path d="m8 39h-3v10h2v-4h1c.552 0 1 .448 1 1v3h2v-3c0-.771-.301-1.468-.78-2 .48-.532.78-1.229.78-2 0-1.654-1.346-3-3-3zm-1 4v-2h1c.552 0 1 .448 1 1s-.448 1-1 1z"/><path d="m13 49h4v-2h-2v-2h2v-2h-2v-2h2v-2h-4z"/><path d="m23 43.877-1.219-4.877h-2.781v10h2v-4.877l1.219 4.877h2.781v-10h-2z"/><path d="m27 41h2v8h2v-8h2v-2h-6z"/><path d="m62.218 21.743-14.473-16.175c-1.461-1.631-3.555-2.568-5.745-2.568s-4.284.937-5.745 2.568l-1.281 1.432h-9.974v-4h2v-2h-12v2h2v4h-3.6l-8.4 15.75v2.25h2v10h-3c-1.654 0-3 1.346-3 3v12c0 1.654 1.346 3 3 3h1v10h6v-10h16v10h6v-10h1c1.654 0 3-1.346 3-3v-1h20v-23.746l.636.715c.581.655 1.418 1.031 2.294 1.031 1.693 0 3.07-1.377 3.07-3.07v-.139c0-.757-.277-1.483-.782-2.048zm-43.218-18.743h4v4h-4zm-4.4 6h18.585l-11.403 12.743c-.324.362-.543.796-.666 1.257h-13.982zm-5.6 16h12.203c.436 1.165 1.552 2 2.867 2 .877 0 1.713-.376 2.294-1.031l.636-.715v9.746h-18zm0 36h-2v-8h2zm22 0h-2v-8h2zm4-11c0 .552-.448 1-1 1h-30c-.552 0-1-.448-1-1v-12c0-.552.448-1 1-1h30c.552 0 1 .448 1 1zm1.244-13.97c1.299-1.883 3.434-3.03 5.756-3.03 3.859 0 7 3.141 7 7v7h-12v-9c0-.757-.291-1.442-.756-1.97zm14.756 10.97v-7c0-4.963-4.037-9-9-9-3.047 0-5.839 1.54-7.497 4.051-.165-.028-.331-.051-.503-.051h-5v-8h26v20zm4-22h-26v-1.996l12.083-13.593c.465-.521 1.369-.521 1.834 0l12.083 13.593zm6-1.07c0 .59-.48 1.07-1.07 1.07-.306 0-.597-.131-.799-.359l-14.72-16.558c-.611-.688-1.49-1.083-2.411-1.083s-1.8.395-2.411 1.083l-14.72 16.558c-.202.228-.493.359-.799.359-.59 0-1.07-.48-1.07-1.07v-.139c0-.264.097-.518.272-.714l14.473-16.175c1.082-1.209 2.633-1.902 4.255-1.902s3.173.693 4.255 1.902l14.473 16.175c.175.196.272.45.272.714z"/><path d="m37 18c0 2.757 2.243 5 5 5s5-2.243 5-5-2.243-5-5-5-5 2.243-5 5zm8 0c0 1.654-1.346 3-3 3s-3-1.346-3-3 1.346-3 3-3 3 1.346 3 3z"/><path d="m11 31h2v2h-2z"/><path d="m15 31h2v2h-2z"/><path d="m19 31h2v2h-2z"/></svg>